<svg width="3000" height="3000" viewBox="0 0 3000 3000" fill="none" xmlns="http://www.w3.org/2000/svg">
<rect width="3000" height="3000" fill="#EEECED"/>
<path fill-rule="evenodd" clip-rule="evenodd" d="M856.308 1616.27C859.201 1630.23 855.965 1644.82 850.673 1658.06C851.999 1659.32 853.325 1660.58 854.65 1661.84C881.127 1641.23 908.017 1620.19 927.267 1592.71C935.377 1581.13 925.796 1564.23 912.808 1558.65C899.82 1553.07 885.051 1554.79 870.928 1554.19C853.935 1553.47 837.1 1549.2 821.822 1541.72C799.642 1530.87 779.287 1512.96 754.596 1512.59C751.87 1512.55 748.951 1512.8 746.81 1514.49C741.587 1518.6 744.777 1526.97 748.7 1532.34C768.166 1558.97 797.348 1578.34 829.454 1585.94C843.331 1589.22 853.415 1602.31 856.308 1616.27Z" fill="#95171B"/>
<path fill-rule="evenodd" clip-rule="evenodd" d="M1282.25 2023.09L931.245 2101.42C859.505 2117.43 788.368 2072.26 772.357 2000.52C764.64 1965.94 771.028 1929.71 790.106 1899.86L983.77 1596.81C1043.39 1503.52 1063.35 1390.31 1039.24 1282.25L960.898 931.245C944.887 859.505 990.065 788.368 1061.81 772.357C1096.38 764.64 1132.61 771.028 1162.47 790.106L1465.51 983.769C1558.8 1043.39 1672.01 1063.35 1780.07 1039.24L2131.08 960.898C2202.82 944.887 2273.95 990.065 2289.96 1061.81C2297.68 1096.38 2291.29 1132.61 2272.22 1162.47L2078.55 1465.51C2018.93 1558.8 1998.97 1672.01 2023.09 1780.07L2101.42 2131.08C2117.43 2202.82 2072.26 2273.95 2000.52 2289.96C1965.94 2297.68 1929.71 2291.29 1899.86 2272.22L1596.81 2078.55C1503.52 2018.93 1390.31 1998.97 1282.25 2023.09Z" fill="#95171B"/>
<path d="M2516.79 1886.43C2516.79 1886.43 943.762 1887.26 320.965 1886.43C272.082 1779.87 333.579 1637.48 444.671 1600C409.903 1639.66 375.136 1679.33 340.369 1718.99C401.453 1718.38 2516.79 1718.99 2516.79 1718.99V1886.43Z" fill="#EEECED"/>
<path fill-rule="evenodd" clip-rule="evenodd" d="M2009.45 1886.67C1228.41 1886.97 665.582 1886.89 320.964 1886.43C272.081 1779.87 1470.67 1824.74 1925.18 1824.74C2379.68 1824.74 2169.41 1886.61 2009.45 1886.67Z" fill="#E7EAEE"/>
<path fill-rule="evenodd" clip-rule="evenodd" d="M1684.18 664.765C1689.73 658.436 1700.68 657.968 1706.75 663.801C1687.15 624.965 1629.78 613.323 1617.46 571.6C1601.68 518.19 1578.4 467.001 1548.53 420C1536.1 466.209 1512.35 509.331 1479.95 544.539C1471.51 544.577 1463.08 544.615 1454.65 544.653C1435.5 544.739 1416.18 544.843 1397.47 548.961C1363.82 556.37 1333.65 576.439 1299.56 581.433C1302.08 578.268 1304.61 575.103 1307.14 571.938C1306.43 568.672 1301.7 567.177 1299.25 569.448C1294.93 552.269 1281.02 538.779 1265.23 530.737C1249.45 522.695 1226.18 507.728 1179.6 511.665C1236.11 574.932 1218.61 838.317 1232.52 888.231C1237.26 889.497 1240.89 884.313 1243.97 880.496C1247.06 876.679 1254.26 874.334 1255.92 878.95C1267.5 911.041 1269.15 960.423 1304.63 979.543C1311.48 983.233 1315.55 976.34 1315.02 972.981C1314.34 968.692 1319.5 965.386 1323.79 966.038C1328.08 966.69 1331.52 969.8 1334.86 972.565C1391.31 1019.17 1483.74 995.148 1540.25 1041.67C1551.42 1050.87 1561.26 1062.85 1575.19 1066.72C1583.51 1069.03 1592.37 1068.12 1600.87 1066.6C1651.46 1057.53 1696.5 1027.51 1731.63 990.005C1766.77 952.497 1793 907.648 1817.42 862.428C1794.92 849.685 1771.26 835.794 1759.04 813.005C1749.41 795.049 1743.48 769.311 1723.22 767.117C1729.65 787.986 1736.07 808.855 1742.5 829.725C1744.85 837.367 1747.23 845.336 1745.99 853.235C1744.75 861.133 1738.71 868.892 1730.72 869.293C1719.89 869.836 1712.25 857.571 1701.49 856.175C1699.45 896.541 1683.95 936.111 1658.03 967.123C1649.04 977.884 1631.75 987.656 1622.62 977.007C1636.47 954.626 1650.33 932.246 1664.18 909.865C1672.81 895.918 1681.67 881.325 1683.26 864.998C1684.84 848.671 1676.74 830.151 1661.04 825.39C1660.35 821.074 1664.9 817.366 1669.27 817.237C1673.64 817.109 1677.67 819.422 1681.42 821.662C1695.4 829.998 1709.37 838.333 1723.35 846.668C1718.89 813.531 1709.77 781.025 1696.35 750.402C1709.35 749.17 1722.65 751.158 1734.73 756.138C1725.43 729.237 1708.38 705.064 1686.16 687.277C1679.58 682.015 1678.62 671.094 1684.18 664.765Z" fill="#EEECED"/>
<path fill-rule="evenodd" clip-rule="evenodd" d="M1405.1 593.356C1416.61 600.976 1425.7 612.212 1430.73 625.067C1432.3 629.065 1436.75 630.993 1439.75 634.063C1442.75 637.132 1443.25 643.693 1439.04 644.55C1437.2 644.925 1435.4 643.912 1433.79 642.949C1407.97 627.536 1376.58 615.092 1348.42 625.619C1353.05 627.984 1355.39 634.052 1353.54 638.912C1359.29 639.12 1364.65 641.705 1369.81 644.239C1374.36 646.47 1378.91 648.702 1383.46 650.933C1382.98 652.276 1382.5 653.619 1382.03 654.961C1361.47 644.492 1336.35 643.404 1314.97 652.054C1322.07 653.134 1329.32 653.332 1336.47 652.641C1346.91 657.9 1357.34 663.16 1367.78 668.419C1370.1 669.589 1372.55 670.876 1373.86 673.123C1375.16 675.371 1374.67 678.857 1372.24 679.783C1353.38 663.153 1326.71 655.8 1301.99 660.418C1299.11 660.957 1297.14 656.934 1298.36 654.268C1299.59 651.602 1302.52 650.233 1305.25 649.158C1318.95 643.765 1333.4 640.276 1348.05 638.823C1340.72 632.029 1332.23 626.49 1323.06 622.518C1321.55 617.353 1329 612.402 1333.18 615.796C1364.91 609.576 1398.9 615.748 1426.42 632.726C1426.65 627.327 1422.65 622.788 1418.9 618.894C1407.19 606.721 1395.48 594.548 1383.77 582.375C1404.28 584.973 1424.38 590.746 1443.13 599.425C1447.38 601.388 1451.57 603.508 1455.41 606.169C1469.88 616.187 1478.49 634.108 1477.27 651.667C1468.51 633.138 1454.63 617.06 1437.58 605.677C1427.84 599.171 1416.79 594.105 1405.1 593.356V593.356Z" fill="#E7EAEE"/>
<path d="M1485.26 400C1617.04 400 1611.53 569.125 1692.74 616.068C1706.37 623.951 1722.51 629.256 1731.58 642.134C1740.65 655.011 1734.81 678.664 1719.08 678.051C1747.61 776.645 1837.31 839.63 1926.19 888.836C2098.61 984.3 2281.96 1064.12 2329.08 1240.46C2341.41 1286.62 2344.52 1330.23 2370.98 1370.1C2426.58 1453.91 2527.23 1514.18 2592.7 1590.53C2670.28 1681 2700.14 1796.12 2673.01 1912.17C2643.31 2039.22 2526.67 2142.48 2424.91 2224.15C2356.26 2279.24 2288.3 2314.33 2274.62 2401.29C2266.5 2452.86 2314.28 2534.47 2282.62 2575.98C2250.69 2617.84 2188.03 2617.43 2136.3 2607.63C2086.12 2598.13 2035.93 2583.09 1994.14 2553.75C1881.92 2474.98 1860.07 2308.62 1912.85 2182.09C1965.64 2055.56 2075.76 1962.42 2189.35 1885.65C1566.56 1889.03 943.762 1890.3 320.965 1889.47C272.082 1782.91 333.579 1640.51 444.671 1603.04C409.904 1642.7 375.137 1682.37 340.37 1722.03L711.662 1718.3C680.475 1677.53 657.159 1630.76 643.371 1581.32C632.654 1542.89 630.062 1495.73 659.754 1469.08C694.444 1437.94 754.378 1452.14 788.91 1420.82C760.574 1398.37 766.292 1350.93 790.642 1324.2C814.992 1297.48 851.305 1285.91 885.584 1274.42C1063.79 1214.68 1233.02 1128.25 1385.89 1018.91C1367.81 1011.02 1357.51 993.05 1330.84 988.293C1282.7 986.942 1243.54 942.165 1254.41 895.244C1232.1 910.877 1207.71 888.379 1212.86 856.723C1218.02 825.066 1238.65 624.84 1206.08 570.375C1173.51 515.91 1179.6 531.759 1156.76 503.014C1214.7 485.691 1286.18 508.547 1314.36 562.053C1363.11 533.663 1421.08 521.402 1477.15 527.62C1509.4 487.579 1477.67 450.851 1485.26 400ZM1871.71 890.311C1833.99 1009.89 1723.56 1103.21 1599.37 1120.46C1590.88 1121.64 1588.95 1132.9 1589.14 1141.47L1597.22 1496.25C1598.39 1547.64 1594.98 1608.25 1551.97 1636.39C1534.24 1647.99 1528.74 1674.75 1540.47 1692.4C1552.2 1710.05 1578.99 1715.35 1596.56 1703.5C1576.18 1669.08 1599.48 1617.6 1638.79 1610.2C1653.28 1607.48 1657.89 1589.35 1659.48 1574.7L1680.84 1377.64C1683.59 1452.58 1686.33 1527.52 1689.08 1602.46C1762.03 1569.59 1847.04 1628.66 1925.42 1612.59C1860.53 1567.63 1800.64 1510 1773.37 1435.91C1746.1 1361.82 1758.86 1269.09 1819.58 1218.64C1783.41 1276.43 1776.27 1351.44 1800.89 1415.01C1824.62 1476.32 1874.21 1523.63 1924.78 1565.64C1940.45 1578.66 1957.3 1592.82 1962.15 1612.6C1967 1632.39 1951.76 1657.7 1931.7 1654.14C1860.26 1627.27 1782.88 1616.34 1706.8 1622.37C1683.22 1624.23 1658.49 1628.24 1640.12 1643.13C1621.75 1658.02 1612.96 1687.06 1627.18 1705.96C1791.25 1706.63 1955.33 1707.3 2119.41 1707.97C2157.37 1708.13 2211.38 1706.76 2238.97 1680.69C2264.83 1656.25 2273.85 1625.89 2269.92 1590.53C2265.99 1555.16 2238.79 1511.58 2237.75 1476.02C2245.87 1551.94 2353.73 1573.18 2387.53 1641.65C2405.79 1678.66 2398.49 1724.32 2378.16 1760.24C2357.82 1796.15 2326.09 1824.07 2293.95 1849.97C2203.42 1922.94 2091.88 1970.65 2016.17 2058.9C1940.46 2147.15 1882.83 2284.77 1915.66 2396.31C1949.12 2509.99 2092.78 2589.35 2210.06 2572.41C2221.37 2570.78 2232.84 2568.25 2242.49 2562.13C2265.37 2547.6 2272.04 2516.86 2269.93 2489.84C2267.81 2462.82 2259.09 2436.38 2259.75 2409.29C2261.18 2350.04 2306.04 2301.66 2350.63 2262.62C2460.58 2166.33 2592.55 2080.31 2643.1 1943.18C2677.61 1849.59 2666.63 1740.38 2614.19 1655.53C2542.98 1540.3 2406 1475.87 2341.81 1356.6C2339.9 1380.78 2335.64 1404.78 2329.08 1428.13C2326.27 1438.13 2321.46 1449.54 2311.33 1451.81C2300.69 1454.19 2419.53 1285.32 2180.68 1074.76C2091.86 996.466 1981.78 939.615 1871.71 890.311ZM2298.82 1608.17C2293.62 1646.49 2271.64 1682.22 2239.79 1704.14C2269.35 1705.26 2298.92 1706.37 2328.48 1707.48C2328.94 1721.62 2309.91 1726.37 2295.77 1726.42L976.828 1731.78C936.659 1731.94 893.311 1733.13 861.388 1757.51C847.912 1767.81 828.244 1781.81 817.199 1768.95C786.825 1733.57 733.952 1730.9 687.322 1730.94L326.809 1731.29C329.539 1779.62 332.269 1827.96 334.999 1876.29L2204.26 1862.31C2229.05 1862.12 2250.5 1845.97 2269.92 1830.56C2308.63 1799.85 2349.45 1766.1 2363.35 1718.68C2377.25 1671.26 2348.23 1608.71 2298.82 1608.17ZM832.936 1728.95C824.605 1726.8 816.972 1738.79 822.448 1745.43C823.794 1747.06 825.657 1748.26 827.7 1748.81C829.81 1749.38 832.103 1749.25 834.136 1748.45C842.14 1745.29 841.267 1731.1 832.936 1728.95ZM715.37 1485.16C717.396 1472.73 702.264 1462.74 690.037 1465.75C677.811 1468.75 669.45 1480.18 664.733 1491.85C654.317 1517.63 657.174 1548.38 672.16 1571.79C672.94 1558.72 669.18 1545.87 667.099 1532.93C665.018 1520 664.856 1505.85 671.975 1494.86C679.094 1483.86 695.698 1478.38 705.785 1486.74C681.91 1491.83 666.917 1521.53 676.995 1543.76C681.24 1528.03 690.402 1513.66 702.874 1503.17L694.463 1603.47C692.455 1627.41 690.987 1653.53 704.613 1673.32C715.935 1689.77 735.39 1698.31 754.028 1705.47C773.744 1713.04 795.673 1720.01 815.547 1712.86C825.222 1709.38 836.656 1702.92 844.618 1709.43C856.559 1719.19 875.042 1716.88 887.667 1708.03C900.292 1699.17 908.279 1685.24 915.262 1671.49C925.457 1651.42 934.402 1630.71 942.027 1609.52C922.954 1628.52 903.882 1647.53 884.81 1666.53C875.125 1676.18 863.136 1686.61 849.664 1684.28C838.735 1682.39 830.71 1671.93 828.976 1660.97C827.242 1650.02 830.724 1638.84 835.773 1628.96C840.606 1619.51 828.279 1610.79 818.366 1606.98C791.428 1596.64 764.741 1583.76 744.375 1563.32C724.01 1542.87 710.729 1513.64 715.37 1485.16ZM1539.81 1302.96C1518.44 1279.65 1423.55 1236.41 1286.65 1269.44C1257.04 1276.59 1091.18 1346.94 1038.4 1351.41C985.614 1355.88 984.051 1354.6 962.829 1370.1C949.834 1379.6 941.18 1393.73 930.851 1406.07C920.521 1418.42 906.796 1429.79 890.703 1430.12C928.405 1452 969.443 1480.44 975.137 1523.66C977.034 1538.06 974.635 1552.66 971.843 1566.91C961.903 1617.67 946.893 1667.43 927.108 1715.21L1495.26 1708.9C1482.07 1689.69 1497.34 1663.78 1514.32 1647.83C1524.91 1637.87 1536.4 1628.87 1548.59 1620.97C1560.76 1613.09 1564.59 1597.28 1566.66 1582.93C1577.77 1506.09 1567.22 1427.95 1556.68 1351.03C1554.34 1333.93 1551.48 1315.69 1539.81 1302.96ZM1511.4 1669.74C1500.79 1677.27 1501.82 1693.04 1503.98 1705.87C1504.51 1708.99 1509.45 1709.24 1511.47 1706.81C1513.5 1704.38 1513.4 1700.88 1513.2 1697.73C1512.6 1688.4 1512 1679.07 1511.4 1669.74ZM754.6 1512.59C751.875 1512.55 748.956 1512.8 746.814 1514.49C741.591 1518.6 744.781 1526.97 748.703 1532.34C768.17 1558.98 797.353 1578.34 829.458 1585.94C843.335 1589.22 853.419 1602.31 856.312 1616.27C859.205 1630.24 855.97 1644.82 850.678 1658.06C852.004 1659.32 853.329 1660.58 854.655 1661.84C881.131 1641.23 908.021 1620.19 927.272 1592.71C935.382 1581.13 925.8 1564.23 912.812 1558.65C899.824 1553.07 885.056 1554.79 870.933 1554.2C853.939 1553.48 837.104 1549.2 821.827 1541.72C799.646 1530.87 779.291 1512.96 754.6 1512.59ZM840.802 1441.19C812.708 1430.43 778.964 1436.11 755.947 1455.49C742.936 1466.44 732.961 1483.88 738.007 1500.12C753.748 1488.3 776.52 1493.5 793.667 1503.17C810.815 1512.85 826.116 1526.56 845.124 1531.69C872.674 1539.12 906.478 1528.31 927.638 1547.45C933.046 1552.35 938.734 1559.45 945.82 1557.72C951.255 1529.72 936.791 1500.79 915.633 1481.65C894.476 1462.52 867.439 1451.4 840.802 1441.19ZM854.059 1326.7C847.735 1324.49 840.122 1325.09 835.097 1329.53C829.031 1334.88 827.98 1344.26 822.121 1349.84C815.033 1356.59 803.384 1355.64 795.334 1361.2C784.358 1368.79 784.593 1386.36 792.883 1396.81C801.173 1407.27 814.806 1411.9 827.958 1414.15C848.126 1417.62 869.03 1416.72 888.828 1411.55C898.538 1409.02 908.574 1405.02 914.357 1396.82C920.14 1388.62 919.383 1375.25 910.572 1370.44C901.691 1365.6 898.095 1351.42 887.984 1351.63C880.294 1351.8 874.908 1344.51 869.923 1338.66C865.581 1333.55 860.383 1328.92 854.059 1326.7ZM1423.55 1022.8C1415.89 1021.82 1407.1 1021.44 1401.55 1026.83C1329.8 1096.46 1238.83 1142.24 1149.4 1186.95C1074.34 1224.47 998.622 1262.25 917.495 1283.71C870.684 1296.1 818.086 1305.53 788.379 1343.77C794.825 1347.96 803.716 1344.69 809.271 1339.37C814.825 1334.06 818.457 1327 823.942 1321.62C841.341 1304.54 875.985 1313.57 882.828 1336.98C890.628 1326.69 907.709 1332.88 915.844 1342.9C923.98 1352.92 928.989 1366.22 940.298 1372.44C950.508 1355.36 969.525 1345.25 988.816 1340.37C1008.11 1335.49 1028.2 1335.04 1047.94 1332.54C1081.32 1328.31 1238.34 1263.52 1276.38 1250.15C1283.22 1247.74 1291.34 1245.74 1297.27 1249.9C1303.21 1254.06 1363.48 1249.93 1395.5 1234.45C1408.57 1228.13 1424.09 1232.01 1437.94 1236.41C1478.24 1249.22 1517.41 1265.61 1554.83 1285.32C1565.26 1223.47 1575.01 1156.67 1546.74 1100.68C1549.05 1126.42 1553.44 1151.97 1559.86 1177C1563.61 1191.61 1545.69 1205.11 1531.18 1200.97C1516.66 1196.82 1508.1 1180.9 1507.61 1165.82C1507.12 1150.74 1512.92 1136.25 1518.62 1122.28C1523.07 1111.36 1527.52 1100.44 1531.98 1089.53C1533.97 1084.64 1535.99 1079.6 1535.96 1074.33C1535.86 1059.36 1520.22 1049.83 1506.31 1044.28C1479.77 1033.69 1451.89 1026.46 1423.55 1022.8ZM1838.56 861.741C1832.5 861.051 1828.12 867.182 1825.16 872.521C1800.02 917.938 1774.31 963.684 1739.16 1001.89C1704.01 1040.09 1658.06 1070.61 1606.61 1077.54C1598.21 1078.67 1589.17 1079.39 1582.55 1084.69C1575.93 1089.99 1574.07 1101.96 1581.34 1106.33C1590.96 1112.09 1600.99 1099.49 1611.64 1095.97C1664.85 1078.37 1717.46 1056.18 1761.18 1021.12C1804.9 986.055 1839.27 936.692 1846.92 881.172C1847.99 873.347 1846.41 862.636 1838.56 861.741ZM1503.98 417.262C1504.31 464.42 1511.94 503.625 1479.53 538.833C1471.1 538.871 1462.67 538.909 1454.24 538.947C1435.08 539.034 1415.76 539.138 1397.05 543.256C1363.4 550.665 1333.24 570.734 1299.14 575.728C1300.41 574.136 1281.17 544.037 1254.41 527.62C1227.96 511.393 1198.1 508.018 1179.6 511.665C1264.24 551.064 1232.34 786.716 1232.1 795.782C1231.35 823.695 1224.77 855.581 1232.1 882.525C1236.84 883.791 1240.47 878.607 1243.56 874.79C1246.64 870.973 1253.84 868.629 1255.51 873.245C1267.08 905.336 1268.73 954.718 1304.22 973.838C1311.06 977.528 1315.14 970.634 1314.61 967.275C1313.93 962.986 1319.08 959.681 1323.37 960.333C1327.67 960.985 1331.1 964.094 1334.45 966.859C1390.9 1013.47 1483.32 989.442 1539.84 1035.97C1551 1045.16 1560.84 1057.14 1574.78 1061.01C1583.1 1063.32 1591.96 1062.41 1600.45 1060.89C1651.04 1051.82 1696.08 1021.81 1731.22 984.3C1766.35 946.792 1792.58 901.943 1817.01 856.723C1794.5 843.98 1770.85 830.089 1758.62 807.3C1748.99 789.344 1743.07 763.606 1722.81 761.411C1729.23 782.281 1735.66 803.15 1742.08 824.02C1744.44 831.661 1746.82 839.631 1745.57 847.529C1744.33 855.428 1738.29 863.186 1730.31 863.587C1719.47 864.131 1711.84 851.866 1701.08 850.47C1699.04 890.835 1683.54 930.406 1657.62 961.418C1648.62 972.179 1631.33 981.951 1622.2 971.302C1636.06 948.921 1649.91 926.541 1663.76 904.16C1672.4 890.213 1681.26 875.619 1682.84 859.292C1684.42 842.965 1676.33 824.445 1660.63 819.685C1659.93 815.368 1664.48 811.661 1668.85 811.532C1673.23 811.403 1677.25 813.717 1681.01 815.957C1694.98 824.292 1708.95 832.628 1722.93 840.963C1718.47 807.826 1709.35 775.32 1695.93 744.697C1708.94 743.465 1722.23 745.452 1734.31 750.433C1725.01 723.531 1707.96 699.359 1685.74 681.571C1679.17 676.31 1678.21 665.389 1683.76 659.06C1689.31 652.731 1700.27 652.263 1706.34 658.096C1686.73 619.26 1629.36 607.617 1617.04 565.895C1601.26 512.485 1551.2 423.464 1503.98 417.262ZM1367.67 878.646C1370.72 877.345 1374.25 878.76 1375.55 881.808C1376.85 884.855 1375.43 888.381 1372.39 889.682C1360.15 894.905 1352.94 901.69 1340.59 917.699L1337.29 922.013C1325.92 936.869 1318.62 944.496 1307.39 951.407C1304.56 953.143 1286.47 957.225 1299.13 949.439C1311.79 941.653 1316.24 929.487 1325.48 917.666L1329.88 911.941C1344.13 893.29 1352.61 885.074 1367.67 878.646ZM1425.4 904.378C1428.71 902.54 1433.08 902.164 1436.19 904.333C1439.3 906.502 1440.26 911.567 1437.52 914.188C1435.13 916.478 1431.18 916.19 1428.49 918.116C1425.36 920.347 1420.51 917.513 1419.94 913.717C1419.37 909.921 1422.04 906.239 1425.4 904.378ZM1366.54 853.104C1369.85 852.868 1372.72 855.357 1372.95 858.662C1373.19 861.967 1370.7 864.838 1367.39 865.073C1353.72 866.047 1344.29 870.698 1330.15 882.095L1325.04 886.32C1323.55 887.568 1321.86 888.979 1321.4 889.36C1308.94 899.753 1300.63 905.418 1289.62 909.935C1286.55 911.192 1265.38 915.5 1281.79 906.66C1298.18 897.833 1319.53 875.3 1319.59 875.236L1322.72 872.674C1338.59 859.901 1349.94 854.285 1366.54 853.104ZM1472.19 854.725C1496.45 849.348 1510.02 850.029 1530.83 855.334L1535.22 856.479C1555.99 861.903 1568.97 861.927 1595.33 853.381C1598.48 852.359 1601.87 854.085 1602.89 857.237C1603.91 860.39 1555.8 874.06 1533.81 868.506L1529.76 867.451C1509.51 862.132 1497.73 861.358 1474.78 866.441C1471.55 867.158 1468.35 865.116 1467.63 861.881C1466.91 858.646 1468.95 855.441 1472.19 854.725ZM1654.74 794.043C1657.71 792.58 1661.31 793.803 1662.77 796.775C1664.24 799.748 1590.88 829.745 1552.2 825.253L1537.8 823.481C1536.41 823.327 1535.21 823.209 1533.77 823.079C1512.12 821.112 1495.92 824.362 1473.98 837.467C1471.13 839.166 1467.45 838.237 1465.75 835.392C1464.05 832.547 1464.98 828.863 1467.82 827.164C1491.41 813.079 1509.79 809.145 1532.97 810.968L1536.48 811.279C1537.51 811.38 1538.5 811.483 1539.62 811.61L1549.44 812.827C1588.38 817.798 1612.04 815.061 1654.74 794.043ZM1301.61 719.769C1307.14 716.919 1314.21 718.638 1319 722.605C1323.79 726.573 1326.66 732.385 1328.75 738.245C1334.92 755.603 1335.18 775.007 1329.46 792.521C1326 803.144 1317.4 814.638 1306.39 812.717C1300.32 811.656 1295.71 806.674 1292.34 801.51C1277.72 779.142 1278.71 747.678 1294.69 726.269C1296.6 723.71 1298.77 721.231 1301.61 719.769ZM1492.23 688.269C1498.87 685.627 1506.52 688.998 1511.76 693.862C1524.75 705.929 1527.52 725.476 1526.4 743.175C1525.92 750.866 1524.79 758.732 1521.02 765.453C1517.25 772.174 1510.35 777.58 1502.65 777.693C1494.91 777.807 1487.85 772.576 1483.83 765.969C1479.8 759.361 1478.32 751.542 1477.34 743.869C1475.35 728.375 1475.26 711.846 1482.63 698.072C1484.83 693.953 1487.89 689.995 1492.23 688.269ZM1383.77 562.375C1404.28 564.973 1424.38 570.746 1443.13 579.426C1447.38 581.389 1451.57 583.508 1455.41 586.169C1469.88 596.187 1478.49 614.108 1477.27 631.667C1468.51 613.139 1454.63 597.059 1437.59 585.677C1427.84 579.171 1416.79 574.105 1405.1 573.355C1416.61 580.976 1425.7 592.212 1430.73 605.067C1432.3 609.065 1436.75 610.993 1439.75 614.062C1442.75 617.132 1443.25 623.692 1439.04 624.55C1437.2 624.925 1435.4 623.912 1433.79 622.949C1407.97 607.536 1376.58 595.092 1348.42 605.619C1353.05 607.984 1355.39 614.052 1353.54 618.912C1359.29 619.12 1364.65 621.706 1369.81 624.239C1374.36 626.471 1378.91 628.702 1383.46 630.934C1382.98 632.276 1382.5 633.618 1382.03 634.961C1361.47 624.492 1336.35 623.404 1314.97 632.055C1322.07 633.135 1329.32 633.332 1336.47 632.641C1346.91 637.9 1357.35 643.159 1367.78 648.419C1370.1 649.589 1372.55 650.875 1373.86 653.123C1375.16 655.371 1374.67 658.857 1372.24 659.783C1353.38 643.153 1326.71 635.8 1301.99 640.418C1299.11 640.957 1297.14 636.934 1298.36 634.268C1299.59 631.601 1302.52 630.233 1305.25 629.158C1318.95 623.764 1333.4 620.276 1348.05 618.823C1340.72 612.029 1332.23 606.49 1323.06 602.518C1321.55 597.353 1329 592.403 1333.18 595.796C1364.91 589.576 1398.9 595.748 1426.42 612.726C1426.65 607.327 1422.65 602.788 1418.9 598.894C1407.19 586.721 1395.48 574.548 1383.77 562.375Z" fill="#00160A"/>
<path fill-rule="evenodd" clip-rule="evenodd" d="M1396.57 862.75C1391.66 858.326 1384.53 856.971 1379.73 852.423C1375.19 848.112 1373.45 841.082 1375.46 835.149C1377.47 829.216 1383.12 824.692 1389.35 824.031C1407.22 822.137 1425.09 820.243 1442.96 818.348C1447.2 817.899 1451.89 817.561 1455.33 820.089C1460.57 823.947 1459.75 832.38 1455.95 837.674C1452.16 842.968 1446.32 846.38 1441.75 851.021C1435.86 857.001 1432.18 865.108 1431.55 873.477C1431.08 879.692 1431.76 887.099 1426.83 890.918C1420.65 895.711 1411.51 890.046 1407.72 883.199C1403.94 876.353 1402.38 867.987 1396.57 862.75H1396.57Z" fill="#FFB61D"/>
<path fill-rule="evenodd" clip-rule="evenodd" d="M2121.14 1709.66C2159.1 1709.82 2213.12 1708.45 2240.7 1682.38C2266.57 1657.94 2275.58 1627.58 2271.65 1592.22C2267.72 1556.85 2240.52 1513.27 2239.48 1477.7C2247.61 1553.63 2355.47 1574.86 2389.26 1643.34C2407.53 1680.35 2400.22 1726.01 2379.89 1761.92C2359.55 1797.84 2327.82 1825.76 2295.68 1851.66C2205.15 1924.62 2093.62 1972.34 2017.9 2060.59C1942.19 2148.84 1884.57 2286.45 1917.4 2398C1950.85 2511.68 2094.51 2591.04 2211.79 2574.1C2223.1 2572.47 2234.58 2569.94 2244.23 2563.82C2267.11 2549.29 2273.78 2518.55 2271.66 2491.53C2269.55 2464.51 2260.82 2438.07 2261.48 2410.97C2262.92 2351.72 2307.78 2303.35 2352.36 2264.3C2462.32 2168.02 2594.28 2082 2644.84 1944.87C2679.34 1851.28 2668.36 1742.07 2615.92 1657.22C2544.71 1541.99 2407.74 1477.56 2343.54 1358.28C2341.64 1382.47 2337.37 1406.47 2330.81 1429.82C2328.01 1439.82 2323.2 1451.23 2313.06 1453.5C2302.42 1455.88 2421.27 1287.01 2182.41 1076.45C2093.59 998.155 1983.51 941.304 1873.44 892C1835.72 1011.58 1725.3 1104.9 1601.1 1122.15C1592.62 1123.33 1590.68 1134.59 1590.87 1143.16C1593.57 1261.42 1596.26 1379.68 1598.95 1497.94C1600.12 1549.33 1596.72 1609.94 1553.7 1638.08C1535.97 1649.68 1530.47 1676.44 1542.2 1694.09C1553.93 1711.74 1580.73 1717.04 1598.29 1705.19C1577.91 1670.77 1601.22 1619.29 1640.53 1611.89C1655.01 1609.17 1659.62 1591.04 1661.21 1576.39C1668.33 1510.7 1675.45 1445.02 1682.57 1379.33C1685.32 1454.27 1688.07 1529.21 1690.81 1604.15C1763.77 1571.28 1848.77 1630.35 1927.16 1614.28C1862.27 1569.31 1802.38 1511.68 1775.1 1437.6C1747.83 1363.51 1760.59 1270.78 1821.32 1220.33C1785.15 1278.12 1778 1353.12 1802.62 1416.7C1826.36 1478.01 1875.94 1525.32 1926.51 1567.33C1942.18 1580.35 1959.03 1594.5 1963.88 1614.29C1968.73 1634.08 1953.5 1659.39 1933.44 1655.83C1862 1628.96 1784.62 1618.03 1708.53 1624.05C1684.96 1625.92 1660.23 1629.93 1641.86 1644.82C1623.49 1659.71 1614.69 1688.75 1628.91 1707.65C1792.99 1708.32 1957.07 1708.99 2121.14 1709.66Z" fill="#EEECED"/>
<path fill-rule="evenodd" clip-rule="evenodd" d="M2210.05 2572.41C2221.37 2570.78 2232.84 2568.25 2242.49 2562.13C2265.37 2547.6 2272.04 2516.86 2269.93 2489.84C2267.81 2462.82 2259.09 2436.38 2259.74 2409.28C2261.18 2350.04 2306.04 2301.66 2350.63 2262.61C2460.58 2166.33 2592.55 2080.31 2643.1 1943.18C2663.34 1888.28 2409.18 2056.17 2269.93 2253.84C2171.8 2393.13 2161.58 2579.41 2210.05 2572.41Z" fill="#E7EAEE"/>
<path fill-rule="evenodd" clip-rule="evenodd" d="M2303.55 1206.99C2286.33 1165.5 2238.3 1125.56 2180.67 1074.76C2091.86 996.466 1981.78 939.615 1871.71 890.311C1979.64 968.934 2111.21 1034.56 2204.84 1133.24C2250.47 1181.34 2281.34 1278.26 2307.14 1309.41C2326.89 1333.25 2352.69 1325.31 2303.55 1206.99Z" fill="#E7EAEE"/>
<path fill-rule="evenodd" clip-rule="evenodd" d="M1543.02 1190.72C1546.94 1182.17 1549.69 1142.73 1529.07 1142.73C1516.21 1157.33 1517.53 1185.35 1543.02 1190.72Z" fill="#FFB61D"/>
<path fill-rule="evenodd" clip-rule="evenodd" d="M917.495 1283.71C870.684 1296.1 818.085 1305.53 788.379 1343.77C794.824 1347.96 803.716 1344.69 809.271 1339.37C814.825 1334.06 818.456 1327 823.941 1321.62C841.341 1304.54 875.985 1313.57 882.827 1336.98C890.628 1326.69 907.708 1332.88 915.844 1342.9C923.979 1352.92 928.988 1366.22 940.297 1372.44C950.508 1355.36 969.524 1345.25 988.815 1340.37C1008.11 1335.49 1028.2 1335.04 1047.94 1332.54C1081.32 1328.31 1113.93 1318.12 1143.77 1302.58C1141.95 1306.3 1265.59 1252.69 1378.72 1244.92C1461.34 1239.24 1539.04 1277 1554.83 1285.32C1565.26 1223.47 1575.01 1156.67 1546.74 1100.68C1549.05 1126.42 1553.44 1151.97 1559.86 1177C1563.61 1191.61 1545.68 1205.11 1531.17 1200.97C1516.66 1196.82 1508.1 1180.9 1507.61 1165.82C1507.11 1150.74 1512.91 1136.25 1518.61 1122.28C1523.07 1111.36 1527.52 1100.44 1531.98 1089.53C1533.97 1084.64 1535.99 1079.6 1535.96 1074.33C1535.86 1059.36 1520.22 1049.83 1506.31 1044.28C1479.77 1033.69 1451.89 1026.46 1423.55 1022.8C1415.89 1021.82 1407.09 1021.44 1401.55 1026.83C1329.8 1096.46 1238.83 1142.24 1149.4 1186.95C1074.34 1224.47 998.622 1262.25 917.495 1283.71Z" fill="#EEECED"/>
<path fill-rule="evenodd" clip-rule="evenodd" d="M940.296 1372.44C950.506 1355.36 969.522 1345.25 988.814 1340.37C1008.1 1335.49 1028.2 1335.04 1047.94 1332.54C1055.64 1331.57 1087.27 1326.57 1128.33 1312.17C1187.69 1291.34 1269.18 1258.09 1346.82 1249.63C1448.16 1238.58 1538.53 1276.73 1554.83 1285.32C1565.26 1223.47 1530 1230.9 1511.08 1228.94C1092.65 1185.72 928.986 1366.22 940.296 1372.44Z" fill="#E7EAEE"/>
</svg>
