<svg width="1428" height="1328" viewBox="0 0 1428 1328" fill="none" xmlns="http://www.w3.org/2000/svg">
<path fill-rule="evenodd" clip-rule="evenodd" d="M331.385 729.763C333.12 738.141 331.179 746.889 328.004 754.834C328.799 755.591 329.595 756.349 330.39 757.106C346.276 744.739 362.41 732.115 373.96 715.626C378.826 708.679 373.078 698.537 365.285 695.19C357.492 691.843 348.631 692.876 340.157 692.517C329.961 692.085 319.86 689.519 310.693 685.033C297.385 678.52 285.172 667.776 270.357 667.555C268.722 667.531 266.971 667.681 265.686 668.693C262.552 671.16 264.466 676.183 266.82 679.403C278.5 695.385 296.009 707.006 315.272 711.561C323.598 713.53 329.649 721.385 331.385 729.763Z" fill="#95171B"/>
<path fill-rule="evenodd" clip-rule="evenodd" d="M586.949 973.851L376.347 1020.85C333.303 1030.46 290.621 1003.35 281.014 960.31C276.384 939.563 280.217 917.826 291.664 899.913L407.862 718.088C443.634 662.112 455.611 594.184 441.141 529.349L394.139 318.747C384.532 275.703 411.639 233.021 454.683 223.414C475.43 218.784 497.167 222.617 515.08 234.064L696.905 350.262C752.881 386.034 820.809 398.011 885.644 383.541L1096.25 336.539C1139.29 326.932 1181.97 354.039 1191.58 397.083C1196.21 417.83 1192.38 439.567 1180.93 457.48L1064.73 639.305C1028.96 695.281 1016.98 763.209 1031.45 828.044L1078.45 1038.65C1088.06 1081.69 1060.95 1124.37 1017.91 1133.98C997.163 1138.61 975.426 1134.78 957.513 1123.33L775.688 1007.13C719.712 971.359 651.784 959.382 586.949 973.851Z" fill="#95171B"/>
<path d="M1327.67 891.86C1327.67 891.86 383.857 892.357 10.1792 891.86C-19.1507 827.921 17.7471 742.485 84.4023 720C63.542 743.798 42.6816 767.596 21.8213 791.394C58.4717 791.026 1327.67 791.394 1327.67 791.394V891.86Z" fill="white"/>
<path fill-rule="evenodd" clip-rule="evenodd" d="M1023.27 892.001C554.647 892.182 216.95 892.135 10.1788 891.86C-19.151 827.921 700.004 854.845 972.706 854.845C1245.41 854.845 1119.25 891.963 1023.27 892.001Z" fill="#E7EAEE"/>
<path fill-rule="evenodd" clip-rule="evenodd" d="M828.106 158.859C831.437 155.061 838.009 154.781 841.653 158.28C829.888 134.979 795.468 127.994 788.073 102.96C778.607 70.9143 764.642 40.2005 746.718 12C739.26 39.7256 725.011 65.5983 705.567 86.7232C700.509 86.746 695.45 86.7688 690.391 86.7916C678.9 86.8434 667.305 86.906 656.082 89.3767C635.889 93.8219 617.791 105.863 597.333 108.86C598.849 106.961 600.365 105.062 601.881 103.163C601.459 101.203 598.619 100.306 597.148 101.669C594.558 91.3613 586.21 83.2672 576.74 78.4422C567.271 73.6173 553.307 64.6368 525.358 66.9991C559.268 104.959 548.767 262.99 557.109 292.939C559.954 293.698 562.132 290.588 563.983 288.298C565.833 286.007 570.154 284.6 571.153 287.37C578.1 306.625 579.087 336.254 600.379 347.726C604.488 349.94 606.932 345.804 606.613 343.789C606.206 341.215 609.297 339.232 611.873 339.623C614.45 340.014 616.509 341.88 618.519 343.539C652.387 371.503 707.843 357.089 741.751 385.005C748.451 390.521 754.355 397.709 762.717 400.031C767.708 401.417 773.023 400.871 778.122 399.957C808.474 394.517 835.498 376.508 856.579 354.003C877.66 331.498 893.4 304.589 908.053 277.457C894.551 269.811 880.357 261.476 873.022 247.803C867.243 237.03 863.689 221.587 851.534 220.27C855.389 232.792 859.245 245.313 863.1 257.835C864.512 262.42 865.94 267.202 865.193 271.941C864.447 276.68 860.825 281.335 856.034 281.576C849.531 281.902 844.952 274.543 838.496 273.705C837.272 297.924 827.972 321.667 812.421 340.274C807.024 346.731 796.648 352.594 791.172 346.204C799.484 332.776 807.796 319.347 816.108 305.919C821.288 297.551 826.604 288.795 827.553 278.999C828.503 269.202 823.645 258.09 814.227 255.234C813.807 252.644 816.54 250.42 819.162 250.342C821.785 250.265 824.2 251.653 826.453 252.997C834.838 257.999 843.222 263 851.607 268.001C848.932 248.119 843.462 228.615 835.407 210.241C843.211 209.502 851.19 210.695 858.437 213.683C852.857 197.542 842.627 183.039 829.295 172.366C825.351 169.209 824.774 162.656 828.106 158.859Z" fill="white"/>
<path fill-rule="evenodd" clip-rule="evenodd" d="M660.66 116.014C667.568 120.586 673.017 127.327 676.039 135.04C676.979 137.439 679.648 138.596 681.449 140.438C683.25 142.279 683.549 146.216 681.025 146.73C679.921 146.955 678.837 146.347 677.87 145.77C662.383 136.522 643.549 129.055 626.653 135.371C629.431 136.79 630.834 140.431 629.726 143.348C633.174 143.472 636.389 145.023 639.487 146.543C642.216 147.882 644.944 149.221 647.673 150.56C647.387 151.366 647.101 152.171 646.815 152.977C634.479 146.695 619.412 146.042 606.579 151.233C610.844 151.881 615.189 151.999 619.483 151.585C625.745 154.74 632.006 157.896 638.267 161.052C639.66 161.754 641.129 162.525 641.913 163.874C642.697 165.223 642.399 167.314 640.941 167.87C629.628 157.892 613.624 153.48 598.796 156.251C597.065 156.574 595.882 154.161 596.616 152.561C597.351 150.961 599.111 150.14 600.749 149.495C608.969 146.259 617.638 144.165 626.428 143.294C622.031 139.218 616.938 135.894 611.435 133.511C610.53 130.412 615.001 127.442 617.506 129.478C636.545 125.746 656.941 129.449 673.453 139.635C673.591 136.396 671.189 133.673 668.941 131.336C661.915 124.033 654.89 116.729 647.864 109.425C660.166 110.984 672.225 114.448 683.479 119.655C686.025 120.833 688.538 122.105 690.844 123.701C699.527 129.712 704.694 140.465 703.963 151C698.703 139.883 690.378 130.236 680.15 123.406C674.304 119.503 667.675 116.463 660.66 116.014V116.014Z" fill="#E7EAEE"/>
<path d="M708.755 0C787.823 8.0244e-05 784.521 101.475 833.243 129.641C841.424 134.37 851.107 137.554 856.547 145.28C861.988 153.007 858.488 167.199 849.045 166.831C866.168 225.987 919.987 263.778 973.312 293.302C1076.77 350.58 1186.77 398.472 1215.05 504.279C1222.45 531.973 1224.31 558.14 1240.19 582.062C1273.55 632.345 1333.94 668.508 1373.22 714.317C1419.77 768.601 1437.68 837.672 1421.41 907.303C1403.59 983.534 1333.6 1045.49 1272.55 1094.49C1231.36 1127.54 1190.58 1148.6 1182.37 1200.77C1177.5 1231.71 1206.17 1280.68 1187.17 1305.58C1168.01 1330.71 1130.42 1330.46 1099.38 1324.58C1069.27 1318.88 1039.16 1309.86 1014.08 1292.25C946.754 1244.99 933.64 1145.17 965.311 1069.25C996.982 993.333 1063.05 937.451 1131.21 891.39C757.537 893.416 383.857 894.181 10.1792 893.684C-19.1506 829.744 17.7469 744.309 84.4019 721.823C63.5416 745.621 42.6811 769.419 21.8208 793.217C96.0794 792.471 170.339 791.725 244.597 790.979C225.885 766.518 211.895 738.458 203.623 708.793C197.192 685.733 195.637 657.439 213.453 641.448C234.267 622.766 270.227 631.281 290.946 612.493C273.944 599.02 277.375 570.556 291.985 554.521C306.595 538.487 328.382 531.544 348.95 524.649C455.873 488.806 557.413 436.95 649.135 371.343C638.284 366.611 632.107 355.83 616.105 352.976C587.218 352.165 563.726 325.299 570.246 297.146C556.859 306.526 542.225 293.027 545.318 274.033C548.411 255.038 560.791 134.903 541.249 102.225C521.707 69.5465 525.359 79.0551 511.658 61.8086C546.422 51.4149 589.308 65.128 606.218 97.2314C635.467 80.1977 670.246 72.8415 703.887 76.5723C723.238 52.5476 704.2 30.5106 708.755 0ZM940.625 294.187C917.992 365.934 851.738 421.925 777.221 432.278C772.13 432.986 770.967 439.741 771.084 444.88C772.699 515.837 774.315 586.795 775.93 657.752C776.632 688.583 774.59 724.952 748.782 741.834C738.142 748.794 734.844 764.85 741.88 775.44C748.917 786.03 764.995 789.212 775.535 782.1C763.307 761.448 777.29 730.561 800.876 726.123C809.565 724.488 812.332 713.611 813.285 704.82C817.558 665.408 821.831 625.995 826.104 586.583L831.048 721.474C874.821 701.753 925.823 737.196 972.854 727.553C933.918 700.575 897.985 665.998 881.622 621.545C865.258 577.092 872.914 521.452 909.35 491.183C887.647 525.858 883.362 570.861 898.131 609.009C912.373 645.793 942.124 674.178 972.465 699.385C981.868 707.197 991.98 715.689 994.889 727.562C997.798 739.436 988.658 754.621 976.622 752.482C933.758 736.364 887.329 729.805 841.678 733.419C827.534 734.539 812.695 736.943 801.672 745.878C790.65 754.813 785.374 772.237 793.905 783.574C892.352 783.977 990.799 784.38 1089.25 784.783C1112.02 784.876 1144.43 784.057 1160.98 768.416C1176.5 753.753 1181.91 735.537 1179.55 714.317C1177.19 693.097 1160.87 666.951 1160.25 645.609C1165.12 691.165 1229.84 703.905 1250.12 744.989C1261.08 767.195 1256.69 794.591 1244.49 816.141C1232.29 837.69 1213.25 854.442 1193.97 869.981C1139.65 913.762 1072.73 942.389 1027.3 995.339C981.874 1048.29 947.3 1130.86 966.997 1197.79C987.07 1265.99 1073.27 1313.61 1143.63 1303.45C1150.42 1302.47 1157.31 1300.95 1163.1 1297.28C1176.82 1288.56 1180.82 1270.12 1179.56 1253.9C1178.29 1237.69 1173.05 1221.83 1173.45 1205.57C1174.31 1170.02 1201.23 1141 1227.98 1117.57C1293.95 1059.8 1373.13 1008.19 1403.46 925.908C1424.16 869.753 1417.58 804.228 1386.11 753.316C1343.39 684.183 1261.2 645.52 1222.68 573.957C1221.54 588.468 1218.98 602.867 1215.05 616.881C1213.36 622.88 1210.48 629.726 1204.4 631.086C1198.01 632.513 1269.32 531.193 1126 404.855C1072.72 357.879 1006.67 323.769 940.625 294.187ZM1196.89 724.901C1193.77 747.891 1180.58 769.332 1161.47 782.486C1179.21 783.153 1196.95 783.821 1214.69 784.488C1214.97 792.969 1203.55 795.82 1195.06 795.854L403.697 799.065C379.595 799.163 353.586 799.878 334.432 814.508C326.347 820.684 314.545 829.088 307.918 821.368C289.694 800.139 257.971 798.54 229.993 798.566C157.89 798.635 85.7876 798.704 13.6851 798.772L18.5991 885.777L1140.16 877.385C1155.03 877.273 1167.9 867.579 1179.55 858.334C1202.78 839.908 1227.27 819.658 1235.61 791.207C1243.95 762.756 1226.54 725.225 1196.89 724.901ZM317.361 797.368C312.362 796.078 307.782 803.275 311.068 807.257C311.876 808.236 312.993 808.955 314.218 809.285C315.485 809.626 316.86 809.548 318.081 809.067C322.883 807.174 322.359 798.659 317.361 797.368ZM246.822 651.095C248.037 643.638 238.959 637.644 231.623 639.448C224.286 641.253 219.269 648.106 216.439 655.11C210.19 670.577 211.903 689.025 220.895 703.076C221.363 695.232 219.108 687.519 217.859 679.761C216.61 672.002 216.513 663.509 220.785 656.913C225.056 650.317 235.018 647.029 241.07 652.041C226.745 655.098 217.75 672.918 223.797 686.259C226.344 676.818 231.84 668.195 239.324 661.901C237.642 681.962 235.96 702.022 234.278 722.082C233.073 736.448 232.191 752.119 240.367 763.993C247.16 773.86 258.834 778.985 270.016 783.281C281.846 787.826 295.004 792.006 306.928 787.717C312.733 785.629 319.593 781.755 324.37 785.658C331.535 791.513 342.625 790.13 350.2 784.816C357.775 779.502 362.567 771.146 366.757 762.896C372.875 750.851 378.241 738.425 382.816 725.714C371.373 737.115 359.929 748.516 348.486 759.917C342.675 765.706 335.481 771.968 327.398 770.57C320.84 769.437 316.025 763.156 314.985 756.583C313.945 750.01 316.034 743.305 319.063 737.379C321.963 731.705 314.567 726.473 308.619 724.188C292.456 717.981 276.443 710.255 264.224 697.989C252.005 685.724 244.037 668.183 246.822 651.095ZM741.489 541.779C728.667 527.793 671.732 501.844 589.593 521.664C571.825 525.952 472.311 568.162 440.64 570.847C408.969 573.531 408.031 572.757 395.298 582.062C387.501 587.761 382.309 596.238 376.111 603.645C369.913 611.051 361.679 617.877 352.023 618.07C374.644 631.199 399.267 648.266 402.683 674.196C403.822 682.837 402.382 691.594 400.707 700.146C394.743 730.599 385.737 760.456 373.866 789.127C487.496 787.864 601.128 786.601 714.758 785.338C706.845 773.813 716.004 758.27 726.192 748.695C732.546 742.724 739.438 737.324 746.756 732.583C754.055 727.855 756.356 718.367 757.599 709.76C764.261 663.653 757.934 616.771 751.609 570.617C750.203 560.358 748.486 549.412 741.489 541.779ZM724.439 761.846C718.075 766.361 718.692 775.826 719.988 783.521C720.303 785.391 723.267 785.543 724.483 784.087C725.699 782.631 725.64 780.531 725.518 778.638C725.158 773.04 724.799 767.443 724.439 761.846ZM270.359 667.556C268.724 667.531 266.972 667.682 265.687 668.693C262.554 671.161 264.468 676.184 266.822 679.404C278.502 695.385 296.011 707.006 315.274 711.562C323.6 713.531 329.65 721.385 331.386 729.763C333.122 738.141 331.18 746.89 328.005 754.835C328.801 755.592 329.597 756.349 330.392 757.106C346.278 744.74 362.412 732.116 373.962 715.627C378.829 708.68 373.08 698.538 365.287 695.19C357.494 691.843 348.633 692.877 340.159 692.518C329.963 692.086 319.861 689.52 310.695 685.034C297.387 678.521 285.174 667.777 270.359 667.556ZM322.082 624.717C305.225 618.256 284.979 621.665 271.168 633.291C263.362 639.863 257.377 650.329 260.405 660.074C269.85 652.98 283.513 656.101 293.801 661.904C304.09 667.708 313.27 675.936 324.675 679.012C341.205 683.469 361.487 676.986 374.183 688.472C377.428 691.407 380.841 695.668 385.092 694.634C388.354 677.832 379.674 660.472 366.98 648.992C354.285 637.512 338.063 630.843 322.082 624.717ZM330.035 556.021C326.24 554.691 321.673 555.055 318.658 557.715C315.018 560.926 314.388 566.557 310.873 569.903C306.62 573.952 299.63 573.382 294.8 576.722C288.214 581.275 288.356 591.814 293.33 598.089C298.303 604.363 306.484 607.137 314.375 608.492C326.475 610.57 339.018 610.035 350.897 606.932C356.723 605.41 362.745 603.014 366.214 598.093C369.684 593.172 369.229 585.149 363.943 582.267C358.615 579.362 356.456 570.849 350.389 570.98C345.776 571.08 342.545 566.709 339.554 563.194C336.949 560.132 333.829 557.35 330.035 556.021ZM671.732 373.683C667.134 373.09 661.857 372.866 658.53 376.095C615.482 417.876 560.9 445.345 507.242 472.169C462.205 494.683 416.773 517.348 368.097 530.228C340.01 537.659 308.451 543.319 290.627 566.263C294.495 568.776 299.83 566.812 303.163 563.624C306.495 560.436 308.673 556.202 311.964 552.972C322.404 542.723 343.191 548.144 347.296 562.186C351.977 556.016 362.225 559.726 367.106 565.738C371.987 571.75 374.992 579.734 381.778 583.467C387.904 573.219 399.315 567.151 410.889 564.223C422.464 561.295 434.519 561.025 446.364 559.524C466.389 556.988 560.606 518.109 583.427 510.088C587.53 508.646 592.401 507.442 595.962 509.938C599.525 512.435 635.686 509.959 654.898 500.67C662.744 496.877 672.056 499.203 680.362 501.843C704.547 509.529 728.048 519.364 750.5 531.193C756.754 494.083 762.604 454.001 745.641 420.407C747.027 435.849 749.664 451.179 753.516 466.197C755.766 474.967 745.01 483.066 736.304 480.58C727.598 478.094 722.46 468.542 722.165 459.493C721.869 450.444 725.349 441.748 728.769 433.365C731.441 426.815 734.113 420.265 736.786 413.715C737.98 410.786 739.195 407.762 739.174 404.6C739.116 395.616 729.731 389.898 721.386 386.568C705.462 380.215 688.736 375.875 671.732 373.683ZM920.737 277.045C917.099 276.631 914.469 280.31 912.696 283.513C897.611 310.763 882.183 338.211 861.094 361.133C840.006 384.055 812.437 402.368 781.568 406.524C776.523 407.204 771.1 407.632 767.127 410.814C763.155 413.997 762.041 421.178 766.406 423.796C772.176 427.256 778.196 419.694 784.584 417.582C816.51 407.024 848.072 393.707 874.306 372.67C900.54 351.633 921.16 322.015 925.749 288.703C926.395 284.008 925.446 277.581 920.737 277.045ZM719.988 10.3574C720.186 38.6525 724.762 62.1751 705.318 83.2998C700.259 83.3226 695.2 83.3454 690.141 83.3682C678.65 83.4199 667.055 83.4826 655.833 85.9531C635.64 90.3983 617.541 102.44 597.084 105.437C597.845 104.481 586.304 86.4223 570.246 76.5723C554.373 66.836 536.46 64.811 525.359 66.999C576.145 90.6391 557.006 232.034 556.86 237.47C556.409 254.217 552.463 273.349 556.86 289.516C559.705 290.275 561.882 287.164 563.733 284.874C565.584 282.584 569.905 281.177 570.904 283.947C577.85 303.202 578.838 332.831 600.129 344.303C604.238 346.516 606.682 342.381 606.363 340.365C605.956 337.792 609.047 335.808 611.624 336.199C614.2 336.59 616.26 338.457 618.269 340.116C652.137 368.08 707.593 353.666 741.501 381.581C748.201 387.097 754.105 394.287 762.467 396.608C767.458 397.994 772.773 397.448 777.872 396.534C808.224 391.094 835.249 373.085 856.33 350.58C877.41 328.075 893.15 301.165 907.803 274.033C894.301 266.388 880.108 258.053 872.773 244.38C866.994 233.607 863.439 218.163 851.285 216.847C855.14 229.368 858.995 241.89 862.85 254.412C864.262 258.997 865.69 263.779 864.944 268.518C864.198 273.257 860.575 277.912 855.784 278.152C849.281 278.478 844.702 271.119 838.246 270.281C837.022 294.5 827.723 318.243 812.171 336.851C806.775 343.307 796.398 349.17 790.922 342.781C799.234 329.353 807.547 315.924 815.859 302.496C821.039 294.128 826.354 285.371 827.303 275.575C828.253 265.779 823.396 254.667 813.977 251.811C813.558 249.221 816.29 246.996 818.913 246.919C821.535 246.842 823.95 248.23 826.204 249.574C834.588 254.575 842.973 259.576 851.357 264.577C848.682 244.695 843.212 225.192 835.158 206.818C842.961 206.079 850.941 207.271 858.187 210.26C852.608 194.119 842.378 179.616 829.045 168.943C825.102 165.786 824.524 159.233 827.856 155.436C831.188 151.638 837.76 151.358 841.403 154.857C829.638 131.556 795.219 124.571 787.824 99.5371C778.357 67.4913 748.323 14.0794 719.988 10.3574ZM638.203 287.187C640.031 286.406 642.147 287.256 642.927 289.085C643.708 290.913 642.858 293.028 641.03 293.809C633.687 296.943 629.362 301.014 621.954 310.619L619.972 313.208C613.148 322.122 608.773 326.697 602.031 330.844C600.337 331.885 589.483 334.335 597.078 329.663C604.672 324.991 607.345 317.692 612.888 310.6L615.529 307.165C624.079 295.974 629.166 291.044 638.203 287.187ZM672.838 302.627C674.828 301.524 677.447 301.298 679.312 302.6C681.177 303.901 681.756 306.94 680.113 308.513C678.676 309.887 676.308 309.713 674.691 310.869C672.817 312.208 669.905 310.508 669.564 308.23C669.223 305.953 670.824 303.744 672.838 302.627ZM637.525 271.862C639.508 271.721 641.23 273.214 641.372 275.197C641.513 277.18 640.02 278.903 638.037 279.044C629.83 279.628 624.177 282.419 615.691 289.257L612.623 291.792C611.728 292.54 610.717 293.387 610.443 293.616C602.963 299.852 597.981 303.251 591.373 305.961C589.533 306.715 576.829 309.3 586.675 303.996C596.509 298.699 609.317 285.179 609.352 285.142L611.231 283.604C620.754 275.941 627.565 272.571 637.525 271.862ZM700.912 272.835C715.471 269.609 723.609 270.018 736.099 273.2L738.733 273.888C751.195 277.142 758.981 277.156 774.799 272.028C776.691 271.416 778.72 272.452 779.334 274.343C779.946 276.234 751.081 284.436 737.886 281.104L735.455 280.471C723.306 277.279 716.236 276.814 702.469 279.864C700.528 280.294 698.607 279.07 698.176 277.129C697.746 275.188 698.971 273.265 700.912 272.835ZM810.445 236.426C812.229 235.548 814.387 236.282 815.265 238.065C816.143 239.849 772.127 257.847 748.918 255.151L740.279 254.089C739.445 253.996 738.727 253.926 737.866 253.848C724.873 252.667 715.152 254.617 701.986 262.48C700.279 263.5 698.069 262.942 697.049 261.235C696.03 259.528 696.588 257.318 698.294 256.299C712.445 247.848 723.474 245.488 737.382 246.581L739.487 246.768C740.109 246.828 740.7 246.89 741.372 246.966L747.267 247.696C770.63 250.679 784.825 249.037 810.445 236.426ZM598.568 191.861C601.885 190.152 606.124 191.183 608.998 193.563C611.871 195.944 613.597 199.431 614.848 202.947C618.553 213.362 618.707 225.004 615.278 235.513C613.198 241.886 608.041 248.782 601.437 247.63C597.791 246.994 595.026 244.004 593.001 240.905C584.233 227.485 584.824 208.607 594.416 195.762C595.562 194.227 596.865 192.739 598.568 191.861ZM712.939 172.961C716.924 171.376 721.512 173.399 724.655 176.317C732.452 183.558 734.111 195.286 733.443 205.905C733.153 210.52 732.475 215.239 730.212 219.271C727.95 223.304 723.813 226.548 719.19 226.616C714.549 226.685 710.311 223.546 707.897 219.581C705.483 215.617 704.595 210.925 704.003 206.321C702.809 197.025 702.754 187.107 707.176 178.843C708.499 176.371 710.334 173.997 712.939 172.961ZM647.864 97.4248C660.166 98.9836 672.225 102.448 683.479 107.655C686.024 108.833 688.538 110.105 690.844 111.701C699.527 117.712 704.694 128.465 703.962 139C698.703 127.883 690.378 118.236 680.15 111.406C674.304 107.503 667.675 104.463 660.66 104.014C667.567 108.586 673.016 115.327 676.039 123.04C676.978 125.438 679.648 126.596 681.449 128.438C683.25 130.279 683.549 134.216 681.025 134.73C679.921 134.955 678.837 134.347 677.87 133.77C662.382 124.522 643.549 117.055 626.653 123.371C629.431 124.79 630.833 128.432 629.725 131.348C633.174 131.472 636.389 133.023 639.487 134.543C642.215 135.882 644.944 137.222 647.672 138.561C647.387 139.366 647.101 140.171 646.815 140.977C634.479 134.695 619.412 134.042 606.579 139.232C610.844 139.88 615.189 140 619.483 139.585C625.744 142.741 632.006 145.896 638.267 149.052C639.66 149.754 641.129 150.525 641.913 151.874C642.696 153.223 642.398 155.314 640.941 155.87C629.628 145.892 613.624 141.48 598.795 144.251C597.065 144.574 595.881 142.16 596.616 140.561C597.35 138.961 599.112 138.14 600.75 137.495C608.969 134.259 617.638 132.165 626.428 131.294C622.031 127.218 616.937 123.894 611.435 121.511C610.529 118.412 615 115.442 617.505 117.478C636.544 113.746 656.941 117.449 673.453 127.636C673.591 124.397 671.189 121.672 668.941 119.336C661.915 112.032 654.89 104.728 647.864 97.4248Z" fill="#00160A"/>
<path fill-rule="evenodd" clip-rule="evenodd" d="M655.54 277.65C652.594 274.996 648.316 274.183 645.44 271.454C642.713 268.867 641.669 264.649 642.875 261.09C644.082 257.53 647.474 254.815 651.212 254.419C661.933 253.282 672.655 252.146 683.376 251.009C685.921 250.739 688.734 250.537 690.795 252.053C693.943 254.368 693.446 259.428 691.171 262.605C688.896 265.781 685.39 267.828 682.649 270.612C679.116 274.201 676.907 279.065 676.529 284.086C676.248 287.815 676.655 292.259 673.699 294.551C669.989 297.427 664.504 294.028 662.233 289.92C659.962 285.812 659.027 280.792 655.54 277.65H655.54Z" fill="#FFB61D"/>
<path fill-rule="evenodd" clip-rule="evenodd" d="M1090.29 785.796C1113.06 785.889 1145.47 785.071 1162.02 769.429C1177.54 754.766 1182.95 736.551 1180.59 715.331C1178.23 694.111 1161.91 667.964 1161.29 646.623C1166.16 692.178 1230.88 704.919 1251.16 746.003C1262.12 768.209 1257.73 795.605 1245.53 817.155C1233.33 838.704 1214.29 855.455 1195.01 870.995C1140.69 914.775 1073.77 943.402 1028.34 996.352C982.914 1049.3 948.34 1131.87 968.037 1198.8C988.11 1267.01 1074.31 1314.62 1144.67 1304.46C1151.46 1303.48 1158.35 1301.97 1164.14 1298.29C1177.86 1289.57 1181.86 1271.13 1180.6 1254.92C1179.33 1238.7 1174.09 1222.84 1174.49 1206.58C1175.35 1171.04 1202.27 1142.01 1229.02 1118.58C1294.99 1060.81 1374.17 1009.2 1404.5 926.922C1425.2 870.766 1418.62 805.242 1387.15 754.33C1344.43 685.196 1262.24 646.534 1223.72 574.971C1222.58 589.482 1220.02 603.88 1216.09 617.894C1214.4 623.893 1211.52 630.74 1205.44 632.099C1199.05 633.527 1270.36 532.206 1127.04 405.869C1073.76 358.893 1007.71 324.783 941.664 295.2C919.032 366.948 852.778 422.939 778.261 433.292C773.17 433.999 772.006 440.755 772.123 445.894C773.739 516.851 775.354 587.808 776.97 658.765C777.672 689.596 775.63 725.965 749.821 742.848C739.181 749.808 735.884 765.864 742.92 776.454C749.957 787.044 766.036 790.226 776.575 783.114C764.347 762.462 778.33 731.574 801.916 727.136C810.605 725.501 813.372 714.624 814.325 705.834C818.598 666.422 822.871 627.009 827.144 587.597C828.792 632.56 830.44 677.524 832.088 722.487C875.861 702.767 926.863 738.21 973.894 728.566C934.958 701.589 899.025 667.011 882.662 622.558C866.298 578.105 873.954 522.465 910.39 492.196C888.687 526.872 884.402 571.875 899.172 610.022C913.413 646.807 943.165 675.192 973.505 700.398C982.909 708.21 993.02 716.703 995.929 728.576C998.838 740.45 989.698 755.635 977.662 753.496C934.798 737.377 888.37 730.818 842.718 734.433C828.574 735.552 813.735 737.957 802.713 746.892C791.691 755.826 786.414 773.251 794.945 784.588C893.392 784.991 991.839 785.394 1090.29 785.796Z" fill="white"/>
<path fill-rule="evenodd" clip-rule="evenodd" d="M1143.63 1303.45C1150.42 1302.47 1157.31 1300.95 1163.1 1297.28C1176.82 1288.56 1180.82 1270.12 1179.56 1253.9C1178.29 1237.69 1173.05 1221.83 1173.45 1205.57C1174.31 1170.02 1201.22 1141 1227.98 1117.57C1293.95 1059.8 1373.13 1008.19 1403.46 925.908C1415.61 892.965 1263.11 993.704 1179.56 1112.31C1120.68 1195.88 1114.55 1307.65 1143.63 1303.45Z" fill="#E7EAEE"/>
<path fill-rule="evenodd" clip-rule="evenodd" d="M1199.73 484.195C1189.4 459.302 1160.58 435.334 1126 404.856C1072.72 357.88 1006.66 323.769 940.624 294.186C1005.38 341.36 1084.33 380.737 1140.5 439.944C1167.88 468.802 1186.41 526.957 1201.89 545.645C1213.74 559.952 1229.21 555.189 1199.73 484.195Z" fill="#E7EAEE"/>
<path fill-rule="evenodd" clip-rule="evenodd" d="M743.411 474.431C745.76 469.304 747.412 445.638 735.041 445.638C727.324 454.399 728.116 471.211 743.411 474.431Z" fill="#FFB61D"/>
<path fill-rule="evenodd" clip-rule="evenodd" d="M368.097 530.228C340.01 537.659 308.451 543.319 290.627 566.263C294.494 568.776 299.829 566.812 303.162 563.624C306.495 560.437 308.673 556.203 311.964 552.972C322.404 542.723 343.191 548.143 347.296 562.186C351.976 556.015 362.225 559.726 367.106 565.739C371.987 571.751 374.993 579.734 381.778 583.467C387.904 573.219 399.314 567.151 410.889 564.223C422.463 561.295 434.519 561.025 446.364 559.525C466.389 556.988 485.956 550.871 503.86 541.548C502.772 543.782 576.952 511.614 644.834 506.951C694.405 503.546 741.024 526.201 750.499 531.193C756.754 494.083 762.604 454.001 745.641 420.407C747.027 435.849 749.663 451.179 753.516 466.197C755.765 474.967 745.011 483.066 736.304 480.58C727.598 478.094 722.459 468.543 722.164 459.493C721.869 450.444 725.348 441.748 728.768 433.365C731.441 426.815 734.113 420.265 736.786 413.715C737.98 410.787 739.195 407.762 739.174 404.599C739.116 395.615 729.73 389.898 721.386 386.568C705.462 380.215 688.736 375.874 671.732 373.682C667.133 373.089 661.857 372.866 658.529 376.095C615.482 417.876 560.9 445.345 507.241 472.169C462.204 494.684 416.773 517.349 368.097 530.228Z" fill="white"/>
<path fill-rule="evenodd" clip-rule="evenodd" d="M381.779 583.467C387.905 573.219 399.315 567.151 410.889 564.223C422.464 561.295 434.52 561.025 446.364 559.525C450.986 558.939 469.963 555.944 494.597 547.3C530.215 534.803 579.109 514.851 625.692 509.776C686.5 503.15 740.721 526.041 750.5 531.193C756.754 494.083 735.602 498.539 724.246 497.366C473.189 471.435 374.993 579.734 381.779 583.467Z" fill="#E7EAEE"/>
</svg>
